<svg width="20" height="20" viewBox="0 0 20 20" fill="none" xmlns="http://www.w3.org/2000/svg">
<path fill-rule="evenodd" clip-rule="evenodd" d="M13.85 0.501136C14.481 0.501136 15.111 0.590136 15.71 0.791136C19.401 1.99114 20.731 6.04114 19.62 9.58114C18.99 11.3901 17.96 13.0411 16.611 14.3901C14.68 16.2601 12.561 17.9201 10.28 19.3501L10.03 19.5011L9.77002 19.3401C7.48102 17.9201 5.35002 16.2601 3.40102 14.3801C2.06102 13.0311 1.03002 11.3901 0.390017 9.58114C-0.739983 6.04114 0.590017 1.99114 4.32102 0.770136C4.61102 0.670136 4.91002 0.600136 5.21002 0.561136H5.33002C5.61102 0.520136 5.89002 0.501136 6.17002 0.501136H6.28002C6.91002 0.520136 7.52002 0.630136 8.11102 0.831136H8.17002C8.21002 0.850136 8.24002 0.871136 8.26002 0.890136C8.48102 0.961136 8.69002 1.04114 8.89002 1.15114L9.27002 1.32114C9.36184 1.37011 9.4649 1.44494 9.55398 1.50961C9.61041 1.55058 9.66123 1.58748 9.70002 1.61114C9.71634 1.62076 9.73292 1.63044 9.74964 1.6402C9.83538 1.69026 9.9247 1.7424 10 1.80014C11.111 0.951136 12.46 0.491136 13.85 0.501136ZM16.5098 7.70162C16.9198 7.69062 17.2698 7.36162 17.2998 6.94062V6.82162C17.3298 5.42062 16.4808 4.15162 15.1898 3.66162C14.7798 3.52062 14.3298 3.74162 14.1798 4.16162C14.0398 4.58162 14.2598 5.04162 14.6798 5.19062C15.3208 5.43062 15.7498 6.06162 15.7498 6.76062V6.79162C15.7308 7.02062 15.7998 7.24162 15.9398 7.41162C16.0798 7.58162 16.2898 7.68062 16.5098 7.70162Z" fill="#3A36DB"/>
</svg>
