<svg width="77" height="69" viewBox="0 0 77 69" fill="none" xmlns="http://www.w3.org/2000/svg">
    <path fill-rule="evenodd" clip-rule="evenodd" d="M38.4075 0.210938C40.6464 22.0439 27.8141 31.1498 24.1777 33.2685C24.2078 33.4939 24.2228 33.7343 24.2228 33.9747V65.1239L30.2032 68.4146H61.6529C61.713 68.4146 61.7882 68.4146 61.8483 68.4296C69.0909 69.4214 69.3764 60.8565 69.3764 59.7896C69.3313 59.2487 69.6318 58.7077 70.1577 58.4823C74.6956 56.5289 72.7723 50.3983 72.592 49.8724C72.3516 49.2563 72.6371 48.5501 73.2381 48.2495C79.1284 45.3946 75.4169 40.2556 74.9361 39.6095C74.5454 39.1888 74.4853 38.5426 74.8008 38.0317C85.4694 21.6683 52.1414 25.7103 50.0077 25.9808C49.8424 26.0108 49.6621 26.0259 49.4818 25.9808C48.7755 25.8455 48.3248 25.1694 48.46 24.4631C53.4336 -0.735709 41.9687 -0.465239 38.3774 0.180886L38.4075 0.210938Z" fill="#3A36DB"/>
    <path fill-rule="evenodd" clip-rule="evenodd" d="M22.0884 65.5001V33.9752C22.0884 33.2239 21.7879 32.5477 21.292 32.0669C20.7962 31.571 20.12 31.2705 19.3837 31.2705H2.70471C1.9534 31.2705 1.27722 31.571 0.796386 32.0669C0.300523 32.5628 0 33.2389 0 33.9752V65.5001C0 66.2514 0.300523 66.9276 0.796386 67.4084C1.29225 67.9043 1.96843 68.2048 2.70471 68.2048H19.3837C20.135 68.2048 20.8112 67.9043 21.292 67.4084C21.6978 67.0027 21.9682 66.4768 22.0584 65.8908C22.0584 65.8006 22.0584 65.6954 22.0884 65.6053C22.0884 65.5752 22.0884 65.5301 22.0884 65.5001Z" fill="#3A36DB"/>
    
</svg>
