<svg width="20" height="20" viewBox="0 0 20 20" fill="none" xmlns="http://www.w3.org/2000/svg">
<path fill-rule="evenodd" clip-rule="evenodd" d="M8.70441 1.51855C8.03408 1.51855 7.46379 1.98438 7.30371 2.61222H12.6864C12.5263 1.98438 11.956 1.51855 11.2857 1.51855H8.70441ZM14.2071 2.61264H16.1881C18.2891 2.61264 20 4.34428 20 6.47085C20 6.47085 19.94 7.3711 19.92 8.62477C19.918 8.72401 19.8699 8.82122 19.7909 8.87996C19.3097 9.2354 18.8694 9.52907 18.8294 9.54932C17.1686 10.6632 15.2386 11.447 13.1826 11.8369C13.0485 11.8632 12.9165 11.7934 12.8484 11.6739C12.2721 10.6754 11.1956 10.0253 9.995 10.0253C8.8024 10.0253 7.71586 10.6683 7.12256 11.6678C7.05353 11.7853 6.92346 11.8531 6.7904 11.8278C4.75138 11.4369 2.82141 10.6541 1.17059 9.55945L0.210105 8.89109C0.130065 8.84046 0.08004 8.74932 0.08004 8.64806C0.050025 8.13161 0 6.47085 0 6.47085C0 4.34428 1.71086 2.61264 3.81191 2.61264H5.78289C5.97299 1.1443 7.2036 0 8.70435 0H11.2856C12.7864 0 14.017 1.1443 14.2071 2.61264ZM19.6594 10.8148L19.6194 10.8351C17.5984 12.192 15.1671 13.0933 12.6159 13.468C12.2557 13.5186 11.8955 13.2857 11.7955 12.9211C11.5753 12.0908 10.865 11.5439 10.0146 11.5439H10.0046H9.98455C9.13413 11.5439 8.42377 12.0908 8.20366 12.9211C8.10361 13.2857 7.74343 13.5186 7.38325 13.468C4.83198 13.0933 2.40076 12.192 0.379749 10.8351C0.369744 10.8249 0.269694 10.7642 0.189654 10.8148C0.0996094 10.8655 0.0996094 10.987 0.0996094 10.987L0.169644 16.1515C0.169644 18.2781 1.87049 19.9996 3.97155 19.9996H16.0176C18.1186 19.9996 19.8195 18.2781 19.8195 16.1515L19.8995 10.987C19.8995 10.987 19.8995 10.8655 19.8095 10.8148C19.7594 10.7844 19.6994 10.7946 19.6594 10.8148ZM10.7449 15.0578C10.7449 15.4832 10.4148 15.8173 9.99456 15.8173C9.58435 15.8173 9.24418 15.4832 9.24418 15.0578V13.7515C9.24418 13.3363 9.58435 12.992 9.99456 12.992C10.4148 12.992 10.7449 13.3363 10.7449 13.7515V15.0578Z" fill="#3A36DB"/>
</svg>
